<svg width="58" height="59" viewBox="0 0 58 59" fill="none" xmlns="http://www.w3.org/2000/svg">
<rect x="0.164062" y="0.951416" width="57.8359" height="57.8359" rx="12.176" fill="#383355"/>
<path d="M13.7352 16.1581L13.7353 16.1581C13.9966 15.3263 14.7099 14.6715 15.5591 14.4855L13.7352 16.1581ZM13.7352 16.1581L13.6443 16.4478L13.6338 16.4812M13.7352 16.1581L13.6338 16.4812M13.6338 16.4812V16.5162M13.6338 16.4812V16.5162M13.6338 16.5162V21.0615V25.6068V25.6418M13.6338 16.5162V25.6418M13.6338 25.6418L13.6443 25.6752M13.6338 25.6418L13.6443 25.6752M13.6443 25.6752L13.7352 25.9648L13.7353 25.9649M13.6443 25.6752L13.7353 25.9649M13.7353 25.9649C13.9799 26.7432 14.5632 27.3189 15.3694 27.596C15.5181 27.6471 15.6623 27.6651 16.2833 27.6751C16.915 27.6852 18.0701 27.6861 20.2705 27.6861H24.8714H24.9113M13.7353 25.9649L24.9113 27.6861M24.9113 27.6861L24.9489 27.6725M24.9113 27.6861L24.9489 27.6725M24.9489 27.6725L25.2159 27.5762L25.2159 27.5762M24.9489 27.6725L25.2159 27.5762M25.2159 27.5762C26.0309 27.2821 26.6223 26.6276 26.8181 25.7958L26.8181 25.7958M25.2159 27.5762L26.8181 25.7958M26.8181 25.7958C26.8293 25.7482 26.8353 25.6702 26.84 25.5916C26.8453 25.504 26.85 25.389 26.8544 25.2517C26.8631 24.9766 26.8703 24.6061 26.876 24.1726C26.8875 23.3054 26.8932 22.1825 26.8931 21.0601C26.8931 19.9376 26.8872 18.8147 26.8756 17.9475C26.8697 17.514 26.8625 17.1434 26.8537 16.8683C26.8494 16.731 26.8446 16.616 26.8393 16.5284C26.8346 16.4497 26.8286 16.3717 26.8174 16.3242L26.8174 16.3242M26.8181 25.7958L26.8174 16.3242M26.8174 16.3242C26.665 15.6765 26.1904 15.0412 25.6228 14.7383L25.6228 14.7383M26.8174 16.3242L25.6228 14.7383M25.6228 14.7383C25.596 14.724 25.5695 14.7091 25.5427 14.6941M25.6228 14.7383L25.5427 14.6941M42.5386 27.6579C43.4029 27.4988 44.1613 26.816 44.4288 25.9649L44.4288 25.9648L44.5198 25.6752L44.5303 25.6418V25.6068V21.0615V16.5162V16.4812L44.5198 16.4478L44.4288 16.1581L44.4288 16.1581C44.2351 15.5417 43.7501 14.9689 43.1796 14.6883L43.1796 14.6883C43.1687 14.683 43.1579 14.6776 43.1472 14.6723C43.036 14.6173 42.9302 14.565 42.7808 14.5268C42.621 14.4858 42.4183 14.4622 42.0973 14.4472C41.4834 14.4185 40.3799 14.4198 38.1937 14.4223L37.8934 14.4227C36.6957 14.424 35.5953 14.427 34.7871 14.4308C34.383 14.4327 34.0518 14.4348 33.8178 14.4369C33.701 14.438 33.6079 14.4391 33.5421 14.4402C33.5093 14.4408 33.4825 14.4413 33.4627 14.4419L33.4602 14.442C33.448 14.4423 33.4212 14.4431 33.4015 14.4462C32.4729 14.5902 31.7259 15.2076 31.4063 16.0938L31.3115 16.3565L31.298 16.394V16.4339V21.0615V25.689V25.7294L31.3118 25.7673L31.4202 26.0641C31.7136 26.8678 32.3915 27.4668 33.2145 27.6414L33.2145 27.6414C33.3571 27.6717 33.638 27.6857 34.3049 27.6942C34.9838 27.703 36.0864 27.7056 37.8963 27.7059C39.384 27.7062 40.4935 27.7028 41.2522 27.6955C41.6314 27.6919 41.924 27.6872 42.1327 27.6816C42.3305 27.6762 42.4751 27.6697 42.5386 27.6579ZM42.5386 27.6579L42.4972 27.4334L42.5386 27.6579C42.5386 27.6579 42.5386 27.6579 42.5386 27.6579ZM24.622 25.4393C24.5641 25.4972 24.112 25.5039 20.2605 25.5039C16.3198 25.5039 15.9574 25.4983 15.8885 25.4358C15.8166 25.3707 15.8133 25.1813 15.8133 21.0686C15.8133 17.126 15.819 16.7633 15.8813 16.6943C15.9464 16.6223 16.1359 16.619 20.2534 16.619C24.1114 16.619 24.5641 16.6257 24.622 16.6837M24.622 25.4393C24.6798 25.3813 24.6865 24.9277 24.6865 21.0615C24.6865 17.1953 24.6798 16.7416 24.622 16.6837M24.622 25.4393L24.4605 25.2779C24.4879 25.2505 24.5155 25.2393 24.5256 25.236M24.622 25.4393L24.4604 25.278C24.4331 25.3054 24.4219 25.3329 24.4186 25.343M24.622 16.6837L24.4605 16.845C24.4879 16.8725 24.5155 16.8837 24.5256 16.887M24.622 16.6837L24.4604 16.8449C24.4331 16.8176 24.4219 16.79 24.4186 16.7799M24.5256 16.887L24.4186 16.7798C24.4186 16.7798 24.4186 16.7799 24.4186 16.7799M24.5256 16.887C24.5161 16.8848 24.4914 16.8808 24.4395 16.8767C24.4363 16.8765 24.433 16.8762 24.4296 16.876M24.5256 16.887L24.4186 16.7799M24.5256 16.887C24.5257 16.887 24.5257 16.887 24.5258 16.887L24.5256 16.887ZM24.4186 16.7799C24.4208 16.7895 24.4248 16.8143 24.4289 16.8664C24.4291 16.8695 24.4294 16.8727 24.4296 16.876M24.4296 16.876C24.4374 16.9802 24.4434 17.1548 24.4477 17.4478C24.4565 18.0497 24.4582 19.1276 24.4582 21.0615C24.4582 22.9954 24.4565 24.0733 24.4477 24.6751C24.4434 24.9682 24.4374 25.1428 24.4296 25.247M24.4296 16.876C24.3256 16.8682 24.1514 16.8622 23.8594 16.8579C23.2588 16.849 22.1832 16.8473 20.2534 16.8473C18.1934 16.8473 17.1193 16.8482 16.5516 16.8579C16.3009 16.8622 16.1564 16.8682 16.0715 16.8757M24.4296 25.247C24.3258 25.2548 24.1519 25.2607 23.8605 25.2651C23.2609 25.2739 22.1871 25.2756 20.2605 25.2756C18.2892 25.2756 17.2157 25.2742 16.6261 25.265C16.3332 25.2605 16.1664 25.2541 16.07 25.2457M24.4296 25.247C24.4294 25.2503 24.4291 25.2534 24.4289 25.2566C24.4248 25.3087 24.4208 25.3334 24.4186 25.343M24.4296 25.247C24.433 25.2468 24.4364 25.2465 24.4397 25.2462C24.4915 25.2421 24.5161 25.2381 24.5256 25.236M16.0715 16.8757C16.0716 16.8746 16.0717 16.8736 16.0718 16.8725C16.0761 16.8238 16.0802 16.8028 16.0818 16.7963C16.082 16.7957 16.0821 16.7954 16.0821 16.7954C16.0821 16.7955 16.0753 16.8201 16.0507 16.8473C16.0507 16.8473 16.0507 16.8474 16.0507 16.8474C16.0235 16.8774 15.9933 16.8862 15.9933 16.8862C15.9933 16.8863 16.0056 16.8828 16.0388 16.879C16.0486 16.8779 16.0595 16.8768 16.0715 16.8757ZM16.0715 16.8757C16.0632 16.9723 16.0568 17.1392 16.0522 17.4324C16.0431 18.0223 16.0416 19.0964 16.0416 21.0686C16.0416 23.1262 16.0425 24.1991 16.0522 24.7662C16.0565 25.0165 16.0625 25.1609 16.07 25.2457M16.07 25.2457C16.0688 25.2456 16.0677 25.2455 16.0666 25.2454C16.018 25.2411 15.997 25.237 15.9905 25.2354C15.99 25.2352 15.9897 25.2352 15.9897 25.2352C15.9898 25.2351 16.0145 25.242 16.0417 25.2666C16.0418 25.2667 16.0418 25.2667 16.0418 25.2667C16.0717 25.2938 16.0804 25.3239 16.0805 25.3239C16.0805 25.3239 16.077 25.3116 16.0732 25.2784C16.0721 25.2686 16.071 25.2578 16.07 25.2457ZM24.5256 25.236C24.5306 25.2344 24.5313 25.2347 24.5258 25.236L24.5256 25.236ZM24.4186 25.343C24.4178 25.3456 24.4175 25.347 24.4175 25.3471C24.4176 25.3472 24.418 25.3459 24.4186 25.3432L24.4186 25.343ZM31.2981 33.9985L31.3118 33.9609L31.4202 33.664C31.7096 32.8713 32.3886 32.2642 33.1942 32.0889C33.2376 32.0794 33.3122 32.0747 33.386 32.071C33.4696 32.0667 33.5806 32.0628 33.7143 32.0592C33.9821 32.0519 34.3456 32.0455 34.7725 32.0402C35.6266 32.0296 36.7374 32.023 37.8496 32.021C38.9617 32.0189 40.0759 32.0213 40.9366 32.0288C41.3668 32.0325 41.7345 32.0375 42.0072 32.0438C42.1434 32.0469 42.257 32.0504 42.3434 32.0543C42.4225 32.0579 42.4957 32.0623 42.5386 32.0702C42.5386 32.0702 42.5386 32.0703 42.5386 32.0703L42.4972 32.2948C43.276 32.4382 43.9682 33.059 44.211 33.8318L31.2981 33.9985ZM31.2981 33.9985L31.298 34.0386M31.2981 33.9985L31.298 34.0386M31.298 34.0386L31.2868 38.5531C31.2864 38.7534 31.2859 38.9454 31.2854 39.1296C31.2799 41.2491 31.2772 42.3194 31.3068 42.9152C31.3229 43.2396 31.3491 43.4416 31.3963 43.6028C31.4366 43.7406 31.4919 43.844 31.5483 43.9495C31.5583 43.9683 31.5684 43.9871 31.5784 44.0062C31.9094 44.637 32.5297 45.0946 33.2457 45.2451L33.2927 45.0217L31.298 34.0386ZM24.622 43.0445C24.5641 43.1024 24.112 43.1091 20.2605 43.1091C16.3198 43.1091 15.9574 43.1035 15.8885 43.0411C15.8166 42.976 15.8133 42.7865 15.8133 38.6739C15.8133 34.7312 15.819 34.3685 15.8813 34.2995C15.9464 34.2275 16.1359 34.2243 20.2534 34.2243C24.1114 34.2243 24.5641 34.231 24.622 34.2889M24.622 43.0445C24.6798 42.9866 24.6865 42.5329 24.6865 38.6667C24.6865 34.8005 24.6798 34.3468 24.622 34.2889M24.622 43.0445L24.4605 42.8831C24.4879 42.8557 24.5155 42.8445 24.5256 42.8413M24.622 43.0445L24.4604 42.8833C24.4331 42.9106 24.4219 42.9382 24.4186 42.9483M24.622 34.2889L24.4605 34.4503C24.4879 34.4777 24.5155 34.4889 24.5256 34.4922C24.5161 34.4901 24.4914 34.4861 24.4395 34.4819C24.4363 34.4817 24.433 34.4814 24.4296 34.4812M24.622 34.2889L24.4604 34.4502C24.4331 34.4228 24.4219 34.3953 24.4186 34.3851M24.4296 34.4812L24.4176 34.3811C24.4176 34.3811 24.418 34.3824 24.4186 34.385C24.4186 34.3851 24.4186 34.3851 24.4186 34.3851M24.4296 34.4812C24.4294 34.4779 24.4291 34.4748 24.4289 34.4716C24.4248 34.4195 24.4208 34.3947 24.4186 34.3851M24.4296 34.4812L24.4186 34.3851M24.4296 34.4812C24.4374 34.5854 24.4434 34.76 24.4477 35.0531C24.4565 35.6549 24.4582 36.7328 24.4582 38.6667C24.4582 40.6006 24.4565 41.6785 24.4477 42.2803C24.4434 42.5734 24.4374 42.748 24.4296 42.8522M24.4296 34.4812C24.3256 34.4734 24.1514 34.4675 23.8594 34.4631C23.2588 34.4543 22.1832 34.4526 20.2534 34.4526C18.1934 34.4526 17.1193 34.4534 16.5516 34.4632C16.3009 34.4675 16.1564 34.4735 16.0715 34.4809M24.4296 42.8522C24.3258 42.86 24.1519 42.866 23.8605 42.8703C23.2609 42.8792 22.1871 42.8808 20.2605 42.8808C18.2892 42.8808 17.2157 42.8794 16.6261 42.8703C16.3332 42.8657 16.1664 42.8593 16.07 42.8509M24.4296 42.8522C24.4294 42.8555 24.4291 42.8587 24.4289 42.8618C24.4248 42.9139 24.4208 42.9387 24.4186 42.9483M24.4296 42.8522C24.433 42.852 24.4364 42.8517 24.4397 42.8515C24.4915 42.8474 24.5161 42.8434 24.5256 42.8413M16.07 42.8509C16.0625 42.7661 16.0565 42.6217 16.0522 42.3714C16.0425 41.8043 16.0416 40.7315 16.0416 38.6739C16.0416 36.7016 16.0431 35.6275 16.0522 35.0376C16.0568 34.7444 16.0632 34.5775 16.0715 34.4809M16.07 42.8509C16.0688 42.8508 16.0677 42.8507 16.0666 42.8506C16.018 42.8463 15.997 42.8423 15.9905 42.8406C15.9845 42.8391 16.0116 42.8446 16.0418 42.8719C16.0717 42.899 16.0804 42.9292 16.0805 42.9291C16.0805 42.9291 16.077 42.9168 16.0732 42.8837C16.0721 42.8739 16.071 42.863 16.07 42.8509ZM16.0715 34.4809C16.0595 34.482 16.0486 34.4831 16.0388 34.4842C16.0056 34.488 15.9933 34.4915 15.9933 34.4915C15.9933 34.4914 16.0236 34.4826 16.0507 34.4525M16.0715 34.4809C16.0716 34.4799 16.0717 34.4788 16.0718 34.4777C16.0761 34.4291 16.0802 34.4081 16.0818 34.4015C16.082 34.4009 16.0821 34.4006 16.0821 34.4006C16.0822 34.4006 16.0754 34.4253 16.0507 34.4525M16.0507 34.4525L16.0507 34.4526L16.0507 34.4525ZM24.5256 42.8413C24.5281 42.8404 24.5296 42.8401 24.5296 42.8402C24.5297 42.8402 24.5285 42.8406 24.5258 42.8412L24.5256 42.8413ZM24.4186 42.9483C24.4178 42.9509 24.4175 42.9523 24.4175 42.9523C24.4176 42.9524 24.418 42.9511 24.4186 42.9484L24.4186 42.9483ZM25.5427 14.6941C25.4544 14.6447 25.3632 14.5936 25.2534 14.5572M25.5427 14.6941L25.2534 14.5572M25.2534 14.5572C25.105 14.5081 24.9215 14.4819 24.62 14.4655M25.2534 14.5572L24.62 14.4655M24.62 14.4655C24.0975 14.4369 23.1561 14.4353 21.2922 14.4322M24.62 14.4655L21.2922 14.4322M21.2922 14.4322C21.008 14.4317 20.7025 14.4312 20.3736 14.4306M21.2922 14.4322L20.3736 14.4306M20.3736 14.4306C18.4933 14.4268 17.3563 14.427 16.6614 14.4342M20.3736 14.4306L16.6614 14.4342M16.6614 14.4342C16.3142 14.4378 16.0748 14.4432 15.9072 14.451M16.6614 14.4342L15.9072 14.451M15.9072 14.451C15.7432 14.4585 15.6356 14.4687 15.5591 14.4855L15.9072 14.451ZM33.7465 16.7759C33.7465 16.7758 33.7461 16.777 33.7455 16.7798L33.7465 16.7759ZM33.7465 16.7759C33.7466 16.7759 33.7463 16.7774 33.7455 16.7799L33.7465 16.7759ZM33.7465 34.3811C33.7465 34.3811 33.7461 34.3823 33.7455 34.385L33.7465 34.3811ZM33.7465 34.3811C33.7466 34.3811 33.7463 34.3825 33.7455 34.3852L33.7465 34.3811ZM15.5347 32.0874L15.5347 32.0874C14.7124 32.2683 13.9931 32.9428 13.7353 33.7633L13.7352 33.7634L13.6443 34.053L13.6338 34.0864V34.1214V38.6667V43.212V43.247L13.6443 43.2804L13.7352 43.5701L13.7353 43.5701C13.929 44.1865 14.414 44.7593 14.9845 45.0399L14.9845 45.0399C14.9959 45.0455 15.0072 45.0511 15.0184 45.0567C15.1311 45.1124 15.2382 45.1654 15.3898 45.2041C15.5525 45.2455 15.7594 45.2693 16.0884 45.2841C16.7168 45.3124 17.8479 45.3095 20.0896 45.3036L20.4078 45.3028L24.872 45.2913L24.9146 45.2912L24.9544 45.2757L25.2263 45.1696C25.8593 44.9227 26.2986 44.5533 26.5867 44.0042L26.3967 43.9045L26.5868 44.0042C26.5963 43.986 26.6059 43.968 26.6155 43.95C26.6713 43.8456 26.7259 43.7432 26.7659 43.6066C26.8125 43.4478 26.8387 43.249 26.8552 42.931C26.8857 42.3452 26.8856 41.2938 26.8855 39.212C26.8854 39.0376 26.8854 38.8559 26.8854 38.6667L26.8854 38.3453C26.8855 36.1676 26.8855 35.0691 26.8592 34.4623C26.8454 34.1444 26.8239 33.9462 26.7868 33.7924C26.752 33.6483 26.7042 33.5487 26.6546 33.4453C26.6495 33.4347 26.6444 33.4242 26.6393 33.4135L26.4332 33.5117L26.6393 33.4135C26.3689 32.8458 25.8325 32.3745 25.2159 32.152L25.2159 32.152L24.9489 32.0557L24.9115 32.0422L24.8718 32.0421L20.353 32.0346C18.5319 32.0315 17.3887 32.0323 16.6755 32.0394C16.3191 32.043 16.068 32.0481 15.8924 32.0553C15.723 32.0622 15.6078 32.0713 15.5347 32.0874ZM41.538 16.8579C41.8308 16.8625 41.9976 16.8689 42.0941 16.8773C42.1016 16.9621 42.1076 17.1064 42.1119 17.3568C42.1216 17.9239 42.1224 18.9967 42.1224 21.0543C42.1224 23.0266 42.121 24.1007 42.1119 24.6906C42.1073 24.9838 42.1009 25.1507 42.0926 25.2473C42.0077 25.2547 41.8631 25.2607 41.6125 25.265C41.0448 25.2748 39.9707 25.2756 37.9107 25.2756C35.9809 25.2756 34.9053 25.2739 34.3047 25.2651C34.0127 25.2607 33.8385 25.2548 33.7345 25.247C33.7267 25.1428 33.7207 24.9681 33.7164 24.6751C33.7075 24.0733 33.7059 22.9954 33.7059 21.0615C33.7059 19.1276 33.7075 18.0497 33.7164 17.4478C33.7207 17.1548 33.7267 16.9801 33.7345 16.8759C33.8383 16.8682 34.0122 16.8622 34.3036 16.8579C34.9032 16.849 35.977 16.8473 37.9036 16.8473C39.8749 16.8473 40.9484 16.8488 41.538 16.8579ZM33.6383 16.887C33.6384 16.887 33.6384 16.887 33.6385 16.8869L33.6383 16.887ZM33.7455 25.343C33.7471 25.3481 33.7467 25.3488 33.7455 25.3432L33.7455 25.343ZM43.0789 14.8932L43.0789 14.8932L43.0789 14.8932ZM41.538 34.4632C41.8308 34.4677 41.9976 34.4741 42.0941 34.4825C42.1016 34.5673 42.1076 34.7117 42.1119 34.962C42.1216 35.5291 42.1224 36.602 42.1224 38.6596C42.1224 40.6318 42.121 41.7059 42.1119 42.2958C42.1073 42.589 42.1009 42.7559 42.0926 42.8525C42.0077 42.8599 41.8631 42.8659 41.6125 42.8703C41.0448 42.88 39.9707 42.8808 37.9107 42.8808C35.9809 42.8808 34.9053 42.8792 34.3047 42.8703C34.0127 42.866 33.8385 42.86 33.7345 42.8522C33.7267 42.748 33.7207 42.5734 33.7164 42.2803C33.7075 41.6785 33.7059 40.6006 33.7059 38.6667C33.7059 36.7328 33.7075 35.6549 33.7164 35.0531C33.7207 34.76 33.7267 34.5854 33.7345 34.4812C33.8383 34.4734 34.0122 34.4675 34.3036 34.4631C34.9032 34.4543 35.977 34.4526 37.9036 34.4526C39.8749 34.4526 40.9484 34.454 41.538 34.4632ZM33.6383 34.4922C33.6384 34.4922 33.6384 34.4922 33.6385 34.4922L33.6345 34.4932C33.6344 34.4932 33.6356 34.4928 33.6383 34.4922ZM33.7455 42.9483C33.7471 42.9533 33.7467 42.954 33.7455 42.9484L33.7455 42.9483Z" fill="white" stroke="white" stroke-width="0.4566"/>
</svg>
