<svg width="24" height="25" viewBox="0 0 24 25" fill="none" xmlns="http://www.w3.org/2000/svg">
<path fill-rule="evenodd" clip-rule="evenodd" d="M23.8966 12.4598C23.8966 19.0325 18.5684 24.3608 11.9956 24.3608C5.42292 24.3608 0.0946655 19.0325 0.0946655 12.4598C0.0946655 5.88709 5.42292 0.558838 11.9956 0.558838C18.5684 0.558838 23.8966 5.88709 23.8966 12.4598ZM12.4221 9.34468C11.2646 9.82614 8.95109 10.8226 5.48171 12.3342C4.91834 12.5582 4.62322 12.7774 4.59635 12.9917C4.55095 13.3539 5.0045 13.4965 5.62213 13.6907C5.70614 13.7171 5.79318 13.7445 5.88242 13.7735C6.49007 13.971 7.30746 14.2021 7.73238 14.2113C8.11783 14.2196 8.54803 14.0607 9.02299 13.7346C12.2645 11.5464 13.9378 10.4404 14.0429 10.4166C14.117 10.3998 14.2197 10.3786 14.2893 10.4405C14.3589 10.5023 14.352 10.6195 14.3447 10.6509C14.2997 10.8424 12.5194 12.4976 11.5981 13.3542C11.3108 13.6212 11.1071 13.8106 11.0654 13.8539C10.9721 13.9508 10.8771 14.0424 10.7857 14.1305C10.2212 14.6747 9.79782 15.0828 10.8091 15.7493C11.2951 16.0695 11.684 16.3343 12.0719 16.5985C12.4956 16.8871 12.9182 17.1749 13.465 17.5333C13.6043 17.6246 13.7374 17.7195 13.8669 17.8118C14.36 18.1634 14.803 18.4792 15.3503 18.4288C15.6683 18.3995 15.9968 18.1005 16.1636 17.2087C16.5579 15.101 17.3328 10.5343 17.5119 8.65248C17.5276 8.48761 17.5079 8.2766 17.492 8.18398C17.4762 8.09135 17.4431 7.95938 17.3227 7.86169C17.1801 7.74599 16.9599 7.72159 16.8615 7.72332C16.4139 7.73121 15.7271 7.97 12.4221 9.34468Z" fill="white"/>
</svg>
