<svg width="22" height="25" viewBox="0 0 22 25" fill="none" xmlns="http://www.w3.org/2000/svg">
<path d="M18.5411 5.15654C17.2278 4.30026 16.2799 2.93021 15.9842 1.33309C15.9204 0.988021 15.8853 0.632889 15.8853 0.269531H11.6937L11.687 17.0677C11.6166 18.9488 10.0683 20.4586 8.17036 20.4586C7.58046 20.4586 7.02501 20.3111 6.53596 20.0538C5.41446 19.4636 4.64697 18.288 4.64697 16.9352C4.64697 14.9924 6.22764 13.4117 8.17036 13.4117C8.53302 13.4117 8.88091 13.4715 9.20998 13.5746V9.29551C8.86943 9.24915 8.52341 9.22016 8.17036 9.22016C3.91627 9.22016 0.455444 12.6811 0.455444 16.9352C0.455444 19.5453 1.75951 21.8551 3.749 23.2519C5.00214 24.1316 6.52643 24.6501 8.17036 24.6501C12.4245 24.6501 15.8853 21.1893 15.8853 16.9352V8.41712C17.5292 9.59707 19.5434 10.2924 21.7167 10.2924V6.10087C20.546 6.10087 19.4556 5.75282 18.5411 5.15654Z" fill="white"/>
</svg>
