<svg width="28" height="21" viewBox="0 0 28 21" fill="none" xmlns="http://www.w3.org/2000/svg">
<path fill-rule="evenodd" clip-rule="evenodd" d="M24.4244 1.427C25.6042 1.74394 26.5374 2.67716 26.8543 3.85687C27.4354 6.00502 27.453 10.4598 27.453 10.4598C27.453 10.4598 27.453 14.9322 26.8719 17.0627C26.555 18.2424 25.6218 19.1756 24.442 19.4926C22.3115 20.0736 13.7365 20.0736 13.7365 20.0736C13.7365 20.0736 5.16155 20.0736 3.03101 19.4926C1.85129 19.1756 0.918077 18.2424 0.601137 17.0627C0.0200806 14.9146 0.0200806 10.4598 0.0200806 10.4598C0.0200806 10.4598 0.0200806 6.00502 0.583528 3.87448C0.900469 2.69476 1.83368 1.76155 3.0134 1.44462C5.14394 0.863551 13.7189 0.845947 13.7189 0.845947C13.7189 0.845947 22.2939 0.845947 24.4244 1.427ZM18.1032 10.4598L10.9897 14.58V6.33957L18.1032 10.4598Z" fill="white"/>
</svg>
